<svg id="Illustration" xmlns="http://www.w3.org/2000/svg" xmlns:xlink="http://www.w3.org/1999/xlink" viewBox="0 0 2807.94 2800"><defs><style>.cls-1{fill:url(#linear-gradient);}.cls-2{fill:#91b3fa;}.cls-3{fill:url(#linear-gradient-2);}.cls-4{fill:url(#linear-gradient-3);}.cls-5{fill:url(#linear-gradient-4);}.cls-6{fill:url(#linear-gradient-5);}.cls-13,.cls-15,.cls-37,.cls-7{fill:#fff;}.cls-7{opacity:0.72;}.cls-8{fill:#7d97f4;}.cls-9{fill:url(#linear-gradient-6);}.cls-10{fill:url(#linear-gradient-7);}.cls-11{fill:url(#linear-gradient-8);}.cls-12{fill:url(#linear-gradient-9);}.cls-13{opacity:0.78;}.cls-14{fill:url(#linear-gradient-10);}.cls-16{fill:url(#linear-gradient-11);}.cls-17{fill:url(#linear-gradient-12);}.cls-18{fill:url(#linear-gradient-13);}.cls-19{fill:url(#linear-gradient-14);}.cls-20{fill:url(#linear-gradient-15);}.cls-21{fill:url(#linear-gradient-16);}.cls-22{fill:url(#linear-gradient-17);}.cls-23{fill:#bdd0fb;}.cls-24{fill:url(#linear-gradient-18);}.cls-25{fill:url(#linear-gradient-19);}.cls-26{fill:url(#linear-gradient-20);}.cls-27{fill:url(#linear-gradient-21);}.cls-28{fill:url(#linear-gradient-22);}.cls-29{fill:url(#linear-gradient-23);}.cls-30{fill:url(#linear-gradient-24);}.cls-31{fill:url(#linear-gradient-25);}.cls-32{fill:url(#linear-gradient-26);}.cls-33{fill:url(#linear-gradient-27);}.cls-34{fill:url(#linear-gradient-28);}.cls-35{fill:url(#linear-gradient-29);}.cls-36{fill:url(#linear-gradient-30);}.cls-37{opacity:0.53;}</style><linearGradient id="linear-gradient" x1="3594.96" y1="4043.27" x2="1129.69" y2="981.56" gradientUnits="userSpaceOnUse"><stop offset="0" stop-color="#dae3fe"/><stop offset="1" stop-color="#e9effd"/></linearGradient><linearGradient id="linear-gradient-2" x1="3285.28" y1="1268.79" x2="2346.78" y2="3069.68" gradientUnits="userSpaceOnUse"><stop offset="0" stop-color="#ff928e"/><stop offset="1" stop-color="#fe7062"/></linearGradient><linearGradient id="linear-gradient-3" x1="2404.91" y1="3236.08" x2="1882.39" y2="2241.78" xlink:href="#linear-gradient-2"/><linearGradient id="linear-gradient-4" x1="1868.94" y1="2062.48" x2="1250.04" y2="3163.31" xlink:href="#linear-gradient-2"/><linearGradient id="linear-gradient-5" x1="1293.48" y1="3154.87" x2="329.62" y2="2322.91" xlink:href="#linear-gradient-2"/><linearGradient id="linear-gradient-6" x1="2916.56" y1="-568.5" x2="1463.22" y2="1956.37" gradientUnits="userSpaceOnUse"><stop offset="0" stop-color="#fdf53f"/><stop offset="1" stop-color="#d93c65"/></linearGradient><linearGradient id="linear-gradient-7" x1="2066.69" y1="2348.49" x2="2031.18" y2="3226.12" gradientUnits="userSpaceOnUse"><stop offset="0" stop-color="#09005d"/><stop offset="1" stop-color="#1a0f91"/></linearGradient><linearGradient id="linear-gradient-8" x1="3868.7" y1="-1131.01" x2="1318.57" y2="2325.53" gradientTransform="translate(1532.02 -1078.36) rotate(45)" gradientUnits="userSpaceOnUse"><stop offset="0" stop-color="#e1473d"/><stop offset="1" stop-color="#e9605a"/></linearGradient><linearGradient id="linear-gradient-9" x1="2395.5" y1="616.11" x2="1746.16" y2="1990.89" gradientTransform="translate(1532.02 -1078.36) rotate(45)" xlink:href="#linear-gradient-2"/><linearGradient id="linear-gradient-10" x1="1853.2" y1="1873.13" x2="2324.99" y2="802.74" xlink:href="#linear-gradient-2"/><linearGradient id="linear-gradient-11" x1="1704.41" y1="1268.45" x2="1637.3" y2="1841.46" xlink:href="#linear-gradient-7"/><linearGradient id="linear-gradient-12" x1="5054.42" y1="-205.35" x2="4804.84" y2="350.04" gradientTransform="translate(-3607.99 -192.4) rotate(15.59)" gradientUnits="userSpaceOnUse"><stop offset="0" stop-color="#febbba"/><stop offset="1" stop-color="#ff928e"/></linearGradient><linearGradient id="linear-gradient-13" x1="852.09" y1="1560.04" x2="1412.08" y2="925.38" gradientTransform="translate(96.92 1676.05) rotate(-57.75)" gradientUnits="userSpaceOnUse"><stop offset="0" stop-color="#4f52ff"/><stop offset="1" stop-color="#4042e2"/></linearGradient><linearGradient id="linear-gradient-14" x1="9583.37" y1="14192.06" x2="10212.4" y2="14993.56" gradientTransform="matrix(-0.96, -0.28, -0.28, 0.96, 40.59, -107.17)" xlink:href="#linear-gradient-13"/><linearGradient id="linear-gradient-15" x1="9999.79" y1="13865.91" x2="10628.84" y2="14667.44" gradientTransform="matrix(-0.96, -0.28, -0.28, 0.96, 491.62, 347.83)" xlink:href="#linear-gradient-13"/><linearGradient id="linear-gradient-16" x1="9811.48" y1="14014.23" x2="10440.55" y2="14815.78" gradientTransform="matrix(-0.96, -0.28, -0.28, 0.96, 491.62, 347.83)" xlink:href="#linear-gradient-13"/><linearGradient id="linear-gradient-17" x1="9465.72" y1="14285.18" x2="10094.77" y2="15086.71" gradientTransform="matrix(-0.96, -0.28, -0.28, 0.96, 491.62, 347.83)" xlink:href="#linear-gradient-13"/><linearGradient id="linear-gradient-18" x1="-5386.55" y1="2002.57" x2="-5190.01" y2="2002.57" gradientTransform="matrix(-1, 0, 0, 1, -4286.53, 0)" xlink:href="#linear-gradient-12"/><linearGradient id="linear-gradient-19" x1="-5116.4" y1="1563.05" x2="-5213.73" y2="2195.7" gradientTransform="matrix(-1, 0, 0, 1, -4286.53, 0)" gradientUnits="userSpaceOnUse"><stop offset="0" stop-color="#53d8ff"/><stop offset="1" stop-color="#3840f7"/></linearGradient><linearGradient id="linear-gradient-20" x1="-695.13" y1="961.62" x2="-1347.92" y2="2115.4" gradientTransform="matrix(-1, 0, 0, 1, -189.86, 0)" xlink:href="#linear-gradient-13"/><linearGradient id="linear-gradient-21" x1="-5322.34" y1="1531.36" x2="-5419.67" y2="2164.02" xlink:href="#linear-gradient-19"/><linearGradient id="linear-gradient-22" x1="-5505.8" y1="2017.18" x2="-5391.99" y2="2017.18" gradientTransform="matrix(-1, 0, 0, 1, -4286.53, 0)" xlink:href="#linear-gradient-12"/><linearGradient id="linear-gradient-23" x1="-4025.64" y1="1300.88" x2="-3876.69" y2="1621.13" gradientTransform="matrix(-1, 0, 0, 1, -2816.43, 0)" xlink:href="#linear-gradient-2"/><linearGradient id="linear-gradient-24" x1="-907.78" y1="841.31" x2="-1560.57" y2="1995.08" gradientTransform="matrix(-1, 0, 0, 1, -189.86, 0)" xlink:href="#linear-gradient-13"/><linearGradient id="linear-gradient-25" x1="-5471.3" y1="1272.69" x2="-5401.66" y2="1272.69" gradientTransform="matrix(-1, 0, 0, 1, -4286.53, 0)" xlink:href="#linear-gradient-12"/><linearGradient id="linear-gradient-26" x1="-5360.61" y1="1182.69" x2="-4853.68" y2="1217.16" gradientTransform="matrix(-1, 0, 0, 1, -4286.53, 0)" xlink:href="#linear-gradient-12"/><linearGradient id="linear-gradient-27" x1="-4187.05" y1="1247.81" x2="-3826.33" y2="1788.89" gradientTransform="matrix(-1, 0, 0, 1, -2816.43, 0)" xlink:href="#linear-gradient-12"/><linearGradient id="linear-gradient-28" x1="6574.7" y1="1134.72" x2="6333.87" y2="1602.26" gradientTransform="translate(-5418.6)" xlink:href="#linear-gradient-7"/><linearGradient id="linear-gradient-29" x1="-780.18" y1="913.5" x2="-1432.97" y2="2067.28" gradientTransform="matrix(-1, 0, 0, 1, -189.86, 0)" xlink:href="#linear-gradient-13"/><linearGradient id="linear-gradient-30" x1="-1123.52" y1="833.09" x2="-1503.05" y2="1673.12" gradientTransform="matrix(-1, 0, 0, 1, -189.86, 0)" xlink:href="#linear-gradient-13"/></defs><path class="cls-1" d="M2916.75,2835.84c-56.63,59.62-110.21,98.06-152.54,128.43-497.61,357-1086.4,253-1211.54,227.55-184.79-37.53-542-110.08-800.21-413.76C361.76,2318.6,422.6,1594.75,725.65,1116.93c55.43-87.41,348.24-572.51,943.38-650.31,360.17-47.08,780,47.88,1084.06,302.61C3391.29,1303.92,3345.86,2384.09,2916.75,2835.84Z" transform="translate(-451.03 -455)"/><rect class="cls-2" x="778.47" y="1715.12" width="284.94" height="1034.78" rx="28.78"/><path class="cls-2" d="M2212.72,2046.4H1985.9c-15.89,0-29.06,15.29-29.06,33.1V3170.68c0,17.81,13.17,34.23,29.06,34.23h226.82c15.9,0,32.81-16.42,32.81-34.23V2079.5C2245.53,2061.69,2228.62,2046.4,2212.72,2046.4Z" transform="translate(-451.03 -455)"/><rect class="cls-2" x="1134.64" y="1392.69" width="284.94" height="1357.22" rx="28.78"/><rect class="cls-2" x="2368.14" y="931.54" width="284.94" height="1818.37" rx="28.78"/><rect class="cls-2" x="1944.47" y="1182.73" width="284.94" height="1567.17" rx="28.78"/><path class="cls-3" d="M2224.45,3002.67l527.92-1011.38H2644.21c-19.95,0-30.91-23.19-18.26-38.6l562.65-685.77c24.39-29.72,72.56-10.87,70.29,27.51L3219.34,1965a67,67,0,0,1-74.51,62.63l-75.41-8.63-523.8,1134.36a83.39,83.39,0,0,1-75.72,48.44H2288.36Z" transform="translate(-451.03 -455)"/><path class="cls-4" d="M1788,2293.35l372.7,827.9a136.66,136.66,0,0,0,124.63,80.57h192.13a70.16,70.16,0,0,0,61.35-36.12l6.83-12.32h0a54.94,54.94,0,0,1-48.93-30l-496.57-973Z" transform="translate(-451.03 -455)"/><path class="cls-5" d="M2050.27,2248.73h0a81.5,81.5,0,0,0-118.36,18.8l-548,823.29a236.72,236.72,0,0,1-197.06,105.56h-77.11L1047,3015.61s509.43-781.11,640.73-899.27c0,0,130.76-117.85,259.68-28.74,34.06,23.54,59.92,57.13,75.72,95.4Z" transform="translate(-451.03 -455)"/><path class="cls-6" d="M451,2529.44S542.75,2414.79,720.5,2397c0,0,84.42,28.77,252.61,330.14s279.83,438.8,410.83,363.73l-10.85,18a197.55,197.55,0,0,1-169.24,95.63H1131.4a247.86,247.86,0,0,1-201.24-103.11C799.26,2919.39,531.44,2557.69,451,2529.44Z" transform="translate(-451.03 -455)"/><path class="cls-7" d="M3195.41,1506.9c-.21,0-.43,0-.64,0a5.67,5.67,0,0,1-5-6.27l3.71-32.74a5.66,5.66,0,1,1,11.25,1.27l-3.71,32.75A5.66,5.66,0,0,1,3195.41,1506.9Z" transform="translate(-451.03 -455)"/><path class="cls-7" d="M2725.72,1920.23a5.59,5.59,0,0,1-3.45-1.18,5.66,5.66,0,0,1-1-7.94l464.61-603.7a19.92,19.92,0,0,1,35.58,14.4l-8.2,72.36a5.66,5.66,0,1,1-11.25-1.28l8.2-72.36a8.59,8.59,0,0,0-15.35-6.21L2730.21,1918A5.65,5.65,0,0,1,2725.72,1920.23Z" transform="translate(-451.03 -455)"/><path class="cls-7" d="M1671.69,2553.11a5.59,5.59,0,0,1-3.16-1,5.66,5.66,0,0,1-1.53-7.86l240.29-356.17a42.8,42.8,0,0,1,74.15,5.62,5.67,5.67,0,0,1-10.24,4.85,31.47,31.47,0,0,0-54.52-4.14l-240.29,356.18A5.65,5.65,0,0,1,1671.69,2553.11Z" transform="translate(-451.03 -455)"/><path class="cls-7" d="M1609.25,2645.67a5.67,5.67,0,0,1-4.69-8.83L1620,2614a5.66,5.66,0,0,1,9.39,6.34L1614,2643.17A5.66,5.66,0,0,1,1609.25,2645.67Z" transform="translate(-451.03 -455)"/><path class="cls-8" d="M1255.67,3248.76a8.23,8.23,0,0,1-8.23-8.24V2256.35a8.23,8.23,0,1,1,16.46,0v984.17A8.23,8.23,0,0,1,1255.67,3248.76Z" transform="translate(-451.03 -455)"/><path class="cls-8" d="M1032.54,3248.76a8.23,8.23,0,0,1-8.23-8.24V2256.35a8.24,8.24,0,0,1,16.47,0v984.17A8.24,8.24,0,0,1,1032.54,3248.76Z" transform="translate(-451.03 -455)"/><path class="cls-8" d="M484.34,3255a8.13,8.13,0,0,1-3.21-.66,8.23,8.23,0,0,1-4.36-10.8l421.05-990.41a8.23,8.23,0,1,1,15.15,6.45L491.93,3250A8.25,8.25,0,0,1,484.34,3255Z" transform="translate(-451.03 -455)"/><path class="cls-8" d="M744.42,3255a8.24,8.24,0,0,1-7.57-11.46l421.05-990.41a8.23,8.23,0,0,1,15.15,6.45L752,3250A8.24,8.24,0,0,1,744.42,3255Z" transform="translate(-451.03 -455)"/><path class="cls-8" d="M1268.45,2265.41H882.76a11.61,11.61,0,0,1-11.6-11.6h0a11.61,11.61,0,0,1,11.6-11.61h385.69a11.61,11.61,0,0,1,11.61,11.61h0A11.61,11.61,0,0,1,1268.45,2265.41Z" transform="translate(-451.03 -455)"/><path class="cls-8" d="M1101.86,2416H841a8.24,8.24,0,1,1,0-16.47h260.84a8.24,8.24,0,1,1,0,16.47Z" transform="translate(-451.03 -455)"/><rect class="cls-8" x="309.95" y="2131.87" width="260.85" height="16.47"/><rect class="cls-8" x="232.47" y="2319.18" width="260.85" height="16.47"/><path class="cls-8" d="M863.09,2978H602.24a8.23,8.23,0,0,1,0-16.46H863.09a8.23,8.23,0,0,1,0,16.46Z" transform="translate(-451.03 -455)"/><path class="cls-8" d="M784.53,3165.28H523.68a8.24,8.24,0,0,1,0-16.47H784.53a8.24,8.24,0,0,1,0,16.47Z" transform="translate(-451.03 -455)"/><rect class="cls-9" x="1583.05" y="1331.9" width="36.79" height="768.65"/><path class="cls-10" d="M2493.23,2572H1621.56A620.64,620.64,0,0,0,1660.34,2788l152.35,410.4a78.19,78.19,0,0,0,73.3,51h342.8a78.19,78.19,0,0,0,73.3-51L2454.44,2788A620.65,620.65,0,0,0,2493.23,2572Z" transform="translate(-451.03 -455)"/><circle class="cls-11" cx="2067.7" cy="1310.13" r="692.72" transform="translate(-771.82 1390.81) rotate(-45)"/><circle class="cls-12" cx="2067.7" cy="1310.13" r="669.69" transform="translate(-771.82 1390.81) rotate(-45)"/><path class="cls-13" d="M1518.43,1038.39a12.51,12.51,0,0,1-11-18.26c110.35-212.77,327.67-343.29,567.16-340.66A636.41,636.41,0,0,1,2188.29,691a12.5,12.5,0,1,1-4.75,24.54,611.56,611.56,0,0,0-109.17-11c-230-2.53-438.71,122.82-544.69,327.16A12.52,12.52,0,0,1,1518.43,1038.39Z" transform="translate(-451.03 -455)"/><circle class="cls-13" cx="2082.13" cy="1324.88" r="566.81" transform="translate(-778.02 1405.34) rotate(-45)"/><path class="cls-14" d="M2021.87,1745.62l.68-61.66c-64.25-3.29-127.67-19.16-172.61-39.42-16-7.24-24.07-25.43-19.25-42.36l16.3-57.26a36,36,0,0,1,49.06-23c44.59,19.27,99.74,34.74,159.38,35.4,61.91.68,108.32-19.8,108.79-62.83.43-38.82-35-62.3-120.79-86.33-122.41-34.94-210-89.43-208.78-197.52,1.08-97.59,73.26-171.31,197.3-189.88l.68-61.67A35.93,35.93,0,0,1,2069,923.57l36.23.4a35.92,35.92,0,0,1,35.53,36.32l-.61,55.37c59.45,3,102.64,13.68,136.87,26.13,17.53,6.38,26.95,25.45,21.86,43.41l-15,53a35.83,35.83,0,0,1-47.56,23.68,374,374,0,0,0-134.24-25.91c-73.46-.8-94.78,29.39-95.08,56.68-.37,33.58,43.45,57.15,138.62,87.59,136,42.43,192,99.71,190.89,201.51-1,93.39-71.21,176.58-205.76,196.09l-.76,69a35.93,35.93,0,0,1-36.32,35.53l-36.24-.4A35.93,35.93,0,0,1,2021.87,1745.62Z" transform="translate(-451.03 -455)"/><path class="cls-15" d="M2337.48,2517.72h-.42a8.47,8.47,0,0,1-8-8.88l.49-10.13a8.47,8.47,0,0,1,16.93.82l-.5,10.14A8.48,8.48,0,0,1,2337.48,2517.72Zm1.63-33.78h-.4a8.47,8.47,0,0,1-8.07-8.86l.46-10.13a8.47,8.47,0,1,1,16.93.77l-.46,10.14A8.48,8.48,0,0,1,2339.11,2483.94Zm1.52-33.79h-.38a8.48,8.48,0,0,1-8.09-8.84l.44-10.12a8.47,8.47,0,1,1,16.93.72l-.44,10.15A8.48,8.48,0,0,1,2340.63,2450.15Zm1.41-33.79h-.35a8.47,8.47,0,0,1-8.12-8.81l.4-10,8.47.23,8.46.43-.4,10.05A8.47,8.47,0,0,1,2342,2416.36Zm1.29-33.89h-.3a8.4,8.4,0,0,1-8.17-8.68l.37-10.13a8.47,8.47,0,1,1,16.93.59l-.35,10A8.56,8.56,0,0,1,2343.33,2382.47Zm1.17-33.78h-.28a8.41,8.41,0,0,1-8.2-8.66l.33-10.13a8.47,8.47,0,0,1,16.94.54l-.32,10A8.55,8.55,0,0,1,2344.5,2348.69Zm1-33.72h-.25a8.49,8.49,0,0,1-8.23-8.71l.28-10,8.47.09,8.47.37-.28,10A8.48,8.48,0,0,1,2345.53,2315Zm.88-33.86h-.2a8.42,8.42,0,0,1-8.27-8.61l.23-10.13a8.47,8.47,0,0,1,8.47-8.28h.19a8.46,8.46,0,0,1,8.28,8.66l-.23,10A8.53,8.53,0,0,1,2346.41,2281.11Zm.73-33.79H2347a8.43,8.43,0,0,1-8.32-8.58l.19-10.12a8.48,8.48,0,0,1,8.47-8.33h.15a8.47,8.47,0,0,1,8.32,8.62l-.18,10A8.52,8.52,0,0,1,2347.14,2247.32Zm.56-33.76h-.12a8.48,8.48,0,0,1-8.36-8.59l.13-10.07,17,.22-.13,10.08A8.48,8.48,0,0,1,2347.7,2213.56Zm.37-33.81H2348a8.48,8.48,0,0,1-8.4-8.55l.08-10.12a8.47,8.47,0,0,1,8.47-8.41h.06a8.46,8.46,0,0,1,8.41,8.53l-.07,10.15A8.48,8.48,0,0,1,2348.07,2179.75Zm.19-33.81h0a8.48,8.48,0,0,1-8.45-8.5l0-10.12a8.47,8.47,0,0,1,8.47-8.46h0a8.46,8.46,0,0,1,8.46,8.48l0,10.15A8.47,8.47,0,0,1,2348.26,2145.94Zm0-33.8a8.47,8.47,0,0,1-8.47-8.44l0-10.12a8.47,8.47,0,0,1,8.43-8.52h0a8.47,8.47,0,0,1,8.47,8.43l0,10.14a8.48,8.48,0,0,1-8.44,8.51Zm-.23-33.75a8.46,8.46,0,0,1-8.46-8.38l-.12-10.14a8.48,8.48,0,0,1,8.38-8.57h.1a8.48,8.48,0,0,1,8.47,8.37l.11,10.16a8.47,8.47,0,0,1-8.38,8.56Zm-.45-33.82a8.48,8.48,0,0,1-8.47-8.33l-.18-10.12a8.47,8.47,0,0,1,8.3-8.64h.17a8.47,8.47,0,0,1,8.47,8.31l.19,10.17a8.48,8.48,0,0,1-8.33,8.61Zm-.71-33.82a8.47,8.47,0,0,1-8.46-8.27l-.26-10.13a8.47,8.47,0,0,1,16.94-.44l.26,10.16a8.48,8.48,0,0,1-8.26,8.68Zm-1-33.81a8.49,8.49,0,0,1-8.47-8.21c-.1-3.38-.22-6.75-.34-10.11a8.49,8.49,0,0,1,8.18-8.77h.3A8.47,8.47,0,0,1,2354,1958c.12,3.39.24,6.78.34,10.18a8.48,8.48,0,0,1-8.2,8.73Zm-1.24-33.81a8.47,8.47,0,0,1-8.46-8.12l-.43-10.12a8.47,8.47,0,0,1,16.93-.74l.43,10.16a8.47,8.47,0,0,1-8.12,8.81Zm-1.54-33.79a8.48,8.48,0,0,1-8.46-8l-.52-10.11a8.47,8.47,0,0,1,16.92-.9l.52,10.16a8.47,8.47,0,0,1-8,8.89Zm-1.86-33.78a8.47,8.47,0,0,1-8.45-8l-.62-10.11a8.47,8.47,0,1,1,16.91-1.06l.62,10.15a8.45,8.45,0,0,1-7.94,9A4.61,4.61,0,0,1,2341.26,1875.56Zm-2.21-33.75a8.47,8.47,0,0,1-8.44-7.88l-.73-10.1a8.47,8.47,0,1,1,16.9-1.24l.73,10.15a8.47,8.47,0,0,1-7.85,9Zm-2.56-33.74a8.47,8.47,0,0,1-8.44-7.78l-.84-10.08a8.47,8.47,0,0,1,16.88-1.44l.85,10.14a8.46,8.46,0,0,1-7.75,9.13C2337,1808.06,2336.72,1808.07,2336.49,1808.07Zm-3-33.69a8.47,8.47,0,0,1-8.42-7.68l-1-10.08A8.47,8.47,0,0,1,2341,1755l1,10.13a8.48,8.48,0,0,1-7.65,9.23A7.26,7.26,0,0,1,2333.53,1774.38Zm-3.38-33.66a8.48,8.48,0,0,1-8.42-7.58c-.36-3.35-.72-6.7-1.1-10.05a8.48,8.48,0,0,1,16.85-1.87q.55,5.05,1.1,10.12a8.47,8.47,0,0,1-7.53,9.33C2330.75,1740.7,2330.45,1740.72,2330.15,1740.72Zm-3.84-33.61a8.48,8.48,0,0,1-8.4-7.46c-.4-3.35-.82-6.69-1.24-10a8.47,8.47,0,0,1,16.81-2.13q.64,5.05,1.26,10.12a8.48,8.48,0,0,1-7.4,9.43A9,9,0,0,1,2326.31,1707.11Zm-4.32-33.55a8.49,8.49,0,0,1-8.38-7.32q-.69-5-1.4-10a8.47,8.47,0,0,1,16.78-2.37c.48,3.35.94,6.71,1.41,10.08a8.48,8.48,0,0,1-7.24,9.55A9.2,9.2,0,0,1,2322,1673.56Zm-4.85-33.48a8.47,8.47,0,0,1-8.37-7.18q-.76-5-1.56-10a8.47,8.47,0,0,1,16.74-2.65c.53,3.34,1.05,6.7,1.57,10.06a8.47,8.47,0,0,1-7.09,9.66A8.1,8.1,0,0,1,2317.14,1640.08Zm-5.43-33.38a8.48,8.48,0,0,1-8.34-7c-.57-3.33-1.15-6.64-1.74-10a8.47,8.47,0,1,1,16.68-3c.6,3.34,1.18,6.69,1.76,10a8.47,8.47,0,0,1-6.91,9.78A8.06,8.06,0,0,1,2311.71,1606.7Zm-6.05-33.28a8.48,8.48,0,0,1-8.31-6.89c-.63-3.31-1.28-6.61-1.93-9.9a8.47,8.47,0,1,1,16.62-3.3q1,5,1.95,10a8.47,8.47,0,0,1-6.73,9.91A8,8,0,0,1,2305.66,1573.42Zm-6.72-33.15a8.47,8.47,0,0,1-8.27-6.71c-.71-3.29-1.43-6.58-2.15-9.85a8.47,8.47,0,1,1,16.54-3.67q1.11,5,2.18,10a8.49,8.49,0,0,1-6.52,10.06A9,9,0,0,1,2298.94,1540.27Zm-7.46-33a8.49,8.49,0,0,1-8.24-6.5q-1.17-4.92-2.37-9.81a8.47,8.47,0,1,1,16.45-4q1.21,4.93,2.41,9.92a8.46,8.46,0,0,1-8.25,10.44Zm-8.27-32.79a8.47,8.47,0,0,1-8.18-6.3q-1.31-4.89-2.63-9.73a8.47,8.47,0,1,1,16.34-4.49c.9,3.28,1.78,6.56,2.66,9.87a8.47,8.47,0,0,1-6,10.36A8.65,8.65,0,0,1,2283.21,1474.48Zm-9.14-32.56a8.5,8.5,0,0,1-8.13-6.07q-1.43-4.85-2.9-9.64a8.47,8.47,0,1,1,16.2-5q1.5,4.88,3,9.79a8.5,8.5,0,0,1-8.12,10.89ZM2264,1409.64a8.48,8.48,0,0,1-8-5.81q-1.59-4.8-3.21-9.54a8.47,8.47,0,1,1,16-5.48q1.65,4.82,3.26,9.7a8.47,8.47,0,0,1-8,11.13Zm-11.17-31.92a8.48,8.48,0,0,1-8-5.53c-1.16-3.15-2.35-6.29-3.54-9.4a8.47,8.47,0,1,1,15.82-6.07q1.83,4.77,3.61,9.58a8.48,8.48,0,0,1-7.94,11.42Zm-12.34-31.48a8.49,8.49,0,0,1-7.84-5.23q-1.92-4.65-3.9-9.24a8.48,8.48,0,0,1,15.57-6.7q2,4.7,4,9.45a8.48,8.48,0,0,1-7.82,11.72Zm-13.63-30.94a8.47,8.47,0,0,1-7.68-4.89q-2.13-4.58-4.31-9.06a8.48,8.48,0,1,1,15.26-7.38q2.22,4.6,4.4,9.26a8.48,8.48,0,0,1-7.67,12.07Zm-15-30.29a8.47,8.47,0,0,1-7.5-4.52q-2.34-4.44-4.74-8.82a8.47,8.47,0,0,1,14.86-8.14q2.46,4.48,4.87,9a8.48,8.48,0,0,1-7.49,12.43Zm-16.57-29.47a8.46,8.46,0,0,1-7.28-4.12q-2.57-4.29-5.2-8.52a8.47,8.47,0,1,1,14.37-9q2.71,4.35,5.37,8.79a8.46,8.46,0,0,1-7.26,12.82ZM2177,1227.09a8.47,8.47,0,0,1-7-3.68q-2.83-4.14-5.72-8.17a8.48,8.48,0,0,1,13.79-9.86q3,4.18,5.91,8.45a8.47,8.47,0,0,1-7,13.26Zm-20-27.21a8.5,8.5,0,0,1-6.66-3.22q-3.09-3.93-6.25-7.74a8.47,8.47,0,0,1,13.06-10.8q3.27,4,6.49,8a8.48,8.48,0,0,1-6.64,13.73ZM2135,1174.17a8.47,8.47,0,0,1-6.24-2.73q-3.37-3.68-6.81-7.23a8.47,8.47,0,0,1,12.18-11.78c2.39,2.48,4.76,5,7.1,7.53a8.48,8.48,0,0,1-6.23,14.21Zm-23.87-23.89a8.46,8.46,0,0,1-5.74-2.25q-3.65-3.36-7.37-6.62a8.47,8.47,0,1,1,11.15-12.76q3.89,3.4,7.71,6.92a8.48,8.48,0,0,1-5.75,14.71Zm-25.81-21.77a8.45,8.45,0,0,1-5.15-1.76q-3.93-3-7.94-5.93a8.47,8.47,0,0,1,10-13.71q4.2,3,8.3,6.21a8.47,8.47,0,0,1-5.17,15.19Zm-27.67-19.33a8.44,8.44,0,0,1-4.51-1.3q-4.17-2.64-8.42-5.15a8.47,8.47,0,1,1,8.63-14.58q4.45,2.63,8.82,5.39a8.47,8.47,0,0,1-4.52,15.64Zm-29.36-16.62a8.37,8.37,0,0,1-3.81-.91q-4.42-2.24-8.93-4.34a8.48,8.48,0,0,1,7.19-15.35q4.73,2.22,9.37,4.56a8.47,8.47,0,0,1-3.82,16Zm-30.85-13.75a8.53,8.53,0,0,1-3.08-.58q-4.59-1.8-9.27-3.47a8.47,8.47,0,0,1,5.71-16q4.9,1.74,9.72,3.63a8.48,8.48,0,0,1-3.08,16.37Zm-32-10.78a8.57,8.57,0,0,1-2.34-.32q-4.74-1.37-9.55-2.6a8.47,8.47,0,1,1,4.22-16.41q5,1.29,10,2.71a8.47,8.47,0,0,1-2.32,16.62Zm-32.82-7.83a8.16,8.16,0,0,1-1.62-.16c-3.23-.63-6.48-1.21-9.76-1.76a8.47,8.47,0,1,1,2.8-16.71c3.42.57,6.82,1.18,10.18,1.83a8.48,8.48,0,0,1-1.6,16.8ZM1788,1055.93a8.47,8.47,0,0,1-.92-16.89q5.15-.57,10.23-1a8.47,8.47,0,0,1,1.59,16.87q-4.95.47-10,1A7.5,7.5,0,0,1,1788,1055.93Zm111.35-.77a7.25,7.25,0,0,1-.93-.05q-4.92-.54-9.9-1a8.47,8.47,0,1,1,1.46-16.88c3.44.3,6.87.64,10.27,1a8.47,8.47,0,0,1-.9,16.89Zm-77.64-2a8.47,8.47,0,0,1-.43-16.93c3.45-.18,6.89-.33,10.3-.44a8.57,8.57,0,0,1,8.74,8.2,8.46,8.46,0,0,1-8.19,8.74q-4.95.16-10,.42Zm44-.41h-.3q-4.95-.16-9.95-.24a8.48,8.48,0,0,1-8.36-8.59,8.37,8.37,0,0,1,8.59-8.35c3.46,0,6.9.13,10.32.25a8.47,8.47,0,0,1-.3,16.94Z" transform="translate(-451.03 -455)"/><path class="cls-15" d="M2240.81,2543.08h-.1a8.48,8.48,0,0,1-8.38-8.57l.1-9.92,8.48-.12,8.47.28-.11,9.95A8.47,8.47,0,0,1,2240.81,2543.08Zm.33-33.8h-.07a8.47,8.47,0,0,1-8.4-8.54l.1-10.14a8.46,8.46,0,0,1,8.47-8.39h.08a8.46,8.46,0,0,1,8.39,8.55l-.1,10.12A8.46,8.46,0,0,1,2241.14,2509.28Zm.33-33.79h-.08a8.48,8.48,0,0,1-8.4-8.55l.09-10.13a8.48,8.48,0,0,1,8.47-8.4h.08a8.48,8.48,0,0,1,8.4,8.55l-.09,10.13A8.48,8.48,0,0,1,2241.47,2475.49Zm.29-33.8h-.07a8.47,8.47,0,0,1-8.4-8.54l.08-10,8.48-.06,8.47.19-.08,10A8.47,8.47,0,0,1,2241.76,2441.69Zm.27-33.87H2242a8.4,8.4,0,0,1-8.41-8.46l.08-10.12a8.46,8.46,0,0,1,8.47-8.41h.06a8.47,8.47,0,0,1,8.41,8.53l-.07,10A8.55,8.55,0,0,1,2242,2407.82Zm.23-33.71h-.06a8.47,8.47,0,0,1-8.41-8.54l.07-10.07,16.94.1-.07,10.11A8.47,8.47,0,0,1,2242.26,2374.11Zm.2-33.79h0a8.47,8.47,0,0,1-8.43-8.51l.05-10.13a8.47,8.47,0,0,1,8.47-8.43h0a8.46,8.46,0,0,1,8.43,8.51l-.05,10.13A8.47,8.47,0,0,1,2242.46,2340.32Zm.15-33.79h0a8.46,8.46,0,0,1-8.43-8.51l0-10.09h8.48l8.47.05,0,10.12A8.47,8.47,0,0,1,2242.61,2306.53Zm.1-33.82h0a8.44,8.44,0,0,1-8.45-8.46v-10.12a8.47,8.47,0,0,1,8.48-8.46h0a8.48,8.48,0,0,1,8.47,8.48l0,10.08A8.5,8.5,0,0,1,2242.71,2272.71Zm0-33.76a8.47,8.47,0,0,1-8.47-8.47v-10.13a8.48,8.48,0,0,1,8.46-8.49h0a8.47,8.47,0,0,1,8.47,8.47v10.15A8.47,8.47,0,0,1,2242.74,2239Zm0-33.81a8.47,8.47,0,0,1-8.47-8.46l0-10.14a8.48,8.48,0,0,1,8.45-8.5h0a8.47,8.47,0,0,1,8.47,8.45l0,10.16a8.47,8.47,0,0,1-8.45,8.49Zm-.11-33.83a8.48,8.48,0,0,1-8.48-8.43l0-10.15a8.48,8.48,0,0,1,8.43-8.51h.05a8.47,8.47,0,0,1,8.47,8.43l.05,10.15a8.47,8.47,0,0,1-8.43,8.51Zm-.2-33.82a8.47,8.47,0,0,1-8.47-8.41l-.08-10.14a8.47,8.47,0,0,1,8.4-8.54h.07a8.47,8.47,0,0,1,8.47,8.41l.08,10.14a8.48,8.48,0,0,1-8.41,8.54Zm-.3-33.82a8.47,8.47,0,0,1-8.47-8.38l-.11-10.14a8.47,8.47,0,0,1,8.37-8.57h.11a8.46,8.46,0,0,1,8.46,8.37l.12,10.16a8.48,8.48,0,0,1-8.39,8.56Zm-.41-33.82a8.47,8.47,0,0,1-8.47-8.36l-.14-10.13a8.48,8.48,0,0,1,8.35-8.6h.13a8.47,8.47,0,0,1,8.46,8.35l.15,10.16a8.48,8.48,0,0,1-8.37,8.58Zm-.53-33.81a8.49,8.49,0,0,1-8.47-8.34l-.18-10.12a8.48,8.48,0,0,1,16.95-.32l.18,10.16a8.49,8.49,0,0,1-8.34,8.62Zm-.66-33.82a8.48,8.48,0,0,1-8.47-8.29l-.22-10.13a8.47,8.47,0,0,1,16.94-.4l.23,10.17a8.48,8.48,0,0,1-8.29,8.65Zm-.81-33.81a8.47,8.47,0,0,1-8.46-8.25L2231,1950a8.48,8.48,0,0,1,8.24-8.71h.24a8.46,8.46,0,0,1,8.46,8.24l.27,10.15a8.47,8.47,0,0,1-8.24,8.7Zm-1-33.81a8.47,8.47,0,0,1-8.47-8.2l-.33-10.13a8.47,8.47,0,0,1,16.94-.56l.33,10.15a8.48,8.48,0,0,1-8.2,8.74Zm-1.16-33.8a8.46,8.46,0,0,1-8.46-8.15l-.39-10.13a8.47,8.47,0,1,1,16.93-.66L2246,1892a8.46,8.46,0,0,1-8.15,8.78Zm-1.37-33.79a8.47,8.47,0,0,1-8.46-8.11l-.46-10.11a8.47,8.47,0,1,1,16.93-.78l.46,10.16a8.48,8.48,0,0,1-8.1,8.83Zm-1.6-33.79a8.47,8.47,0,0,1-8.46-8l-.52-10.11a8.47,8.47,0,0,1,16.92-.9l.53,10.15a8.47,8.47,0,0,1-8,8.89Zm-1.84-33.77a8.46,8.46,0,0,1-8.45-8l-.61-10.11a8.47,8.47,0,1,1,16.91-1l.61,10.14a8.47,8.47,0,0,1-7.95,9Zm-2.13-33.75a8.48,8.48,0,0,1-8.45-7.9l-.69-10.11a8.48,8.48,0,1,1,16.91-1.17l.69,10.14a8.47,8.47,0,0,1-7.89,9Zm-2.44-33.73a8.48,8.48,0,0,1-8.44-7.82q-.39-5.07-.79-10.09a8.47,8.47,0,1,1,16.89-1.36c.27,3.37.53,6.75.8,10.14a8.47,8.47,0,0,1-7.8,9.1Zm-2.78-33.71a8.48,8.48,0,0,1-8.43-7.73c-.29-3.37-.6-6.73-.91-10.07a8.48,8.48,0,0,1,16.88-1.55q.46,5.05.91,10.14a8.47,8.47,0,0,1-7.7,9.18Zm-3.17-33.67a8.47,8.47,0,0,1-8.42-7.62q-.51-5.06-1-10.06a8.47,8.47,0,1,1,16.85-1.76c.36,3.36.7,6.73,1,10.12a8.47,8.47,0,0,1-7.58,9.28A8.38,8.38,0,0,1,2222.23,1664.59Zm-3.61-33.62a8.49,8.49,0,0,1-8.41-7.51q-.57-5.06-1.16-10a8.47,8.47,0,1,1,16.83-2q.59,5,1.17,10.11a8.47,8.47,0,0,1-7.45,9.38A8.18,8.18,0,0,1,2218.62,1631Zm-4.09-33.58a8.48,8.48,0,0,1-8.39-7.38c-.43-3.35-.88-6.69-1.32-10a8.47,8.47,0,1,1,16.79-2.26c.45,3.35.89,6.71,1.34,10.09a8.48,8.48,0,0,1-7.31,9.5A8.27,8.27,0,0,1,2214.53,1597.39Zm-4.63-33.49a8.48,8.48,0,0,1-8.37-7.23q-.75-5-1.5-10a8.47,8.47,0,0,1,16.75-2.56q.76,5,1.51,10.07a8.46,8.46,0,0,1-7.13,9.62A7.82,7.82,0,0,1,2209.9,1563.9Zm-5.25-33.41a8.47,8.47,0,0,1-8.34-7.07q-.84-5-1.7-10a8.47,8.47,0,1,1,16.69-2.91q.87,5,1.72,10.06a8.49,8.49,0,0,1-8.37,9.87Zm-6-33.29a8.47,8.47,0,0,1-8.31-6.89q-.94-5-1.92-9.89a8.47,8.47,0,1,1,16.62-3.3c.66,3.32,1.31,6.67,1.94,10a8.46,8.46,0,0,1-6.74,9.9A8.56,8.56,0,0,1,2198.7,1497.2Zm-6.73-33.13a8.47,8.47,0,0,1-8.27-6.68q-1.08-5-2.17-9.84a8.47,8.47,0,0,1,16.53-3.73q1.11,5,2.2,10a8.47,8.47,0,0,1-6.49,10.07A8,8,0,0,1,2192,1464.07Zm-7.64-32.94a8.47,8.47,0,0,1-8.21-6.44q-1.22-4.92-2.47-9.76a8.47,8.47,0,1,1,16.41-4.22q1.28,4.92,2.5,9.91a8.48,8.48,0,0,1-8.23,10.51Zm-8.64-32.68a8.47,8.47,0,0,1-8.15-6.16c-.92-3.24-1.85-6.47-2.8-9.66a8.47,8.47,0,1,1,16.25-4.8c1,3.25,1.91,6.52,2.85,9.82a8.49,8.49,0,0,1-8.15,10.8Zm-9.84-32.35a8.48,8.48,0,0,1-8-5.85q-1.56-4.8-3.17-9.52a8.48,8.48,0,0,1,16-5.45c1.09,3.21,2.17,6.46,3.23,9.72a8.47,8.47,0,0,1-5.43,10.68A8.26,8.26,0,0,1,2165.85,1366.1Zm-11.16-31.9a8.47,8.47,0,0,1-7.93-5.48q-1.78-4.73-3.6-9.36a8.47,8.47,0,0,1,15.77-6.2q1.86,4.75,3.68,9.58a8.46,8.46,0,0,1-7.92,11.46Zm-12.7-31.31a8.47,8.47,0,0,1-7.77-5.08c-1.34-3.08-2.71-6.12-4.08-9.13a8.47,8.47,0,1,1,15.41-7c1.42,3.1,2.81,6.23,4.2,9.39a8.47,8.47,0,0,1-4.37,11.15A8.33,8.33,0,0,1,2142,1302.89Zm-14.44-30.54a8.47,8.47,0,0,1-7.55-4.61q-2.3-4.47-4.63-8.83a8.47,8.47,0,1,1,14.92-8q2.43,4.51,4.79,9.13a8.48,8.48,0,0,1-7.53,12.34Zm-16.43-29.52a8.49,8.49,0,0,1-7.26-4.09q-2.58-4.27-5.24-8.45a8.47,8.47,0,0,1,14.3-9.1q2.76,4.33,5.45,8.79a8.47,8.47,0,0,1-7.25,12.85Zm-18.6-28.17a8.48,8.48,0,0,1-6.88-3.51q-2.91-4-5.9-8a8.47,8.47,0,0,1,13.46-10.29q3.14,4.11,6.18,8.33a8.47,8.47,0,0,1-6.86,13.43Zm-21-26.44a8.47,8.47,0,0,1-6.39-2.9q-3.26-3.73-6.6-7.34a8.47,8.47,0,1,1,12.42-11.53q3.53,3.79,7,7.73a8.47,8.47,0,0,1-6.38,14ZM2048.09,1164a8.43,8.43,0,0,1-5.78-2.28q-3.6-3.37-7.31-6.61a8.47,8.47,0,1,1,11.16-12.75q3.9,3.42,7.72,7a8.47,8.47,0,0,1-5.79,14.66Zm-25.86-21.63a8.42,8.42,0,0,1-5.07-1.69q-3.95-2.94-8-5.76a8.47,8.47,0,0,1,9.68-13.9q4.28,3,8.45,6.09a8.47,8.47,0,0,1-5.08,15.26Zm-28.09-18.62a8.42,8.42,0,0,1-4.27-1.16q-4.24-2.49-8.59-4.84a8.47,8.47,0,1,1,8.06-14.9q4.59,2.48,9.09,5.11a8.48,8.48,0,0,1-4.29,15.79Zm-30-15.39a8.43,8.43,0,0,1-3.44-.74c-3-1.33-6-2.62-9.07-3.87A8.47,8.47,0,0,1,1958,1088c3.22,1.31,6.41,2.68,9.57,4.08a8.48,8.48,0,0,1-3.46,16.22Zm-31.47-12.1a8.31,8.31,0,0,1-2.63-.42q-4.68-1.52-9.44-2.92a8.48,8.48,0,1,1,4.79-16.26q5,1.47,9.91,3.07a8.48,8.48,0,0,1-2.63,16.53Zm-32.52-8.92a8.51,8.51,0,0,1-1.87-.21q-4.8-1.08-9.7-2a8.47,8.47,0,0,1,3.28-16.62q5.12,1,10.14,2.14a8.47,8.47,0,0,1-1.85,16.74Zm-33.21-6a9.33,9.33,0,0,1-1.17-.08q-4.89-.67-9.87-1.25a8.48,8.48,0,0,1,1.95-16.84c3.44.4,6.86.83,10.24,1.3a8.48,8.48,0,0,1-1.15,16.87Zm-33.59-3.39a5.15,5.15,0,0,1-.56,0q-4.93-.32-10-.54a8.47,8.47,0,1,1,.77-16.93q5.19.22,10.29.56a8.47,8.47,0,0,1-.54,16.93Zm-43.91-1a8.47,8.47,0,0,1-.13-16.94c3.1,0,6.19-.08,9.25-.08h1.07a8.48,8.48,0,0,1,0,17h-1q-4.47,0-9,.07Z" transform="translate(-451.03 -455)"/><path class="cls-15" d="M2180.39,2561.61a8.47,8.47,0,0,1-8.47-8.28l-.22-10.15a8.48,8.48,0,0,1,8.29-8.65h.18a8.47,8.47,0,0,1,8.47,8.29l.22,10.13a8.48,8.48,0,0,1-8.28,8.66Zm-.75-33.8a8.48,8.48,0,0,1-8.47-8.28l-.23-10.15a8.46,8.46,0,0,1,8.28-8.66h.2a8.46,8.46,0,0,1,8.46,8.28l.24,10.14a8.48,8.48,0,0,1-8.28,8.66Zm-.78-33.81a8.48,8.48,0,0,1-8.47-8.27l-.24-10.15a8.47,8.47,0,0,1,16.94-.4l.25,10.14a8.48,8.48,0,0,1-8.27,8.67Zm-.81-33.82a8.47,8.47,0,0,1-8.47-8.26l-.25-10.14a8.47,8.47,0,0,1,16.94-.43l.25,10.14a8.48,8.48,0,0,1-8.26,8.69Zm-.86-33.8a8.48,8.48,0,0,1-8.47-8.26l-.26-10.14a8.47,8.47,0,0,1,16.94-.45l.26,10.16a8.47,8.47,0,0,1-8.25,8.68Zm-.9-33.81a8.46,8.46,0,0,1-8.46-8.24l-.28-10.14a8.48,8.48,0,0,1,8.24-8.71h.23a8.47,8.47,0,0,1,8.47,8.24l.28,10.14a8.48,8.48,0,0,1-8.24,8.71Zm-.93-33.8a8.48,8.48,0,0,1-8.47-8.23l-.29-10.14a8.47,8.47,0,1,1,16.93-.5l.3,10.15a8.47,8.47,0,0,1-8.22,8.71Zm-1-33.81a8.47,8.47,0,0,1-8.46-8.22l-.31-10.14a8.47,8.47,0,0,1,16.94-.51l.3,10.14a8.46,8.46,0,0,1-8.21,8.73Zm-1-33.8a8.48,8.48,0,0,1-8.47-8.21l-.32-10.13a8.47,8.47,0,0,1,16.94-.55l.32,10.15a8.46,8.46,0,0,1-8.2,8.73Zm-1.11-33.8a8.47,8.47,0,0,1-8.46-8.19l-.34-10.13a8.47,8.47,0,1,1,16.93-.58l.35,10.15a8.48,8.48,0,0,1-8.19,8.75Zm-1.16-33.8a8.48,8.48,0,0,1-8.47-8.17l-.36-10.13a8.48,8.48,0,0,1,16.94-.62l.36,10.15a8.48,8.48,0,0,1-8.17,8.77Zm-1.24-33.79a8.48,8.48,0,0,1-8.46-8.16l-.39-10.13a8.47,8.47,0,1,1,16.93-.65l.39,10.14a8.47,8.47,0,0,1-8.15,8.79Zm-1.32-33.79a8.49,8.49,0,0,1-8.46-8.14l-.41-10.13a8.48,8.48,0,0,1,16.94-.69l.4,10.14a8.47,8.47,0,0,1-8.12,8.81Zm-1.4-33.79a8.48,8.48,0,0,1-8.46-8.11l-.43-10.14a8.47,8.47,0,0,1,16.93-.73l.43,10.14a8.46,8.46,0,0,1-8.1,8.83Zm-1.49-33.78a8.48,8.48,0,0,1-8.46-8.09l-.46-10.13a8.47,8.47,0,1,1,16.93-.78l.46,10.13a8.47,8.47,0,0,1-8.07,8.86Zm-1.59-33.78a8.47,8.47,0,0,1-8.45-8.07l-.5-10.12a8.47,8.47,0,1,1,16.92-.84l.5,10.14a8.47,8.47,0,0,1-8.05,8.88Zm-1.7-33.78a8.47,8.47,0,0,1-8.45-8l-.54-10.13a8.48,8.48,0,0,1,16.93-.89l.53,10.13a8.47,8.47,0,0,1-8,8.91Zm-1.82-33.77a8.47,8.47,0,0,1-8.45-8l-.57-10.12a8.47,8.47,0,1,1,16.91-1l.58,10.14a8.48,8.48,0,0,1-8,8.93Zm-1.95-33.76a8.47,8.47,0,0,1-8.45-8l-.62-10.12a8.48,8.48,0,0,1,16.92-1l.61,10.13a8.47,8.47,0,0,1-7.94,9Zm-2.1-33.75a8.47,8.47,0,0,1-8.45-7.93l-.66-10.11a8.47,8.47,0,1,1,16.91-1.11l.66,10.14a8.47,8.47,0,0,1-7.91,9Zm-2.27-33.74a8.46,8.46,0,0,1-8.44-7.88l-.71-10.11a8.47,8.47,0,0,1,16.9-1.2l.71,10.13a8.46,8.46,0,0,1-7.86,9C2154.57,1885.83,2154.37,1885.83,2154.17,1885.83Zm-2.44-33.72a8.46,8.46,0,0,1-8.43-7.84l-.77-10.1a8.47,8.47,0,1,1,16.89-1.3l.77,10.13a8.46,8.46,0,0,1-7.81,9.08C2152.16,1852.1,2152,1852.11,2151.73,1852.11Zm-2.63-33.71a8.48,8.48,0,0,1-8.44-7.79l-.83-10.09a8.47,8.47,0,0,1,16.89-1.41l.83,10.13a8.47,8.47,0,0,1-7.76,9.13Q2149.44,1818.4,2149.1,1818.4Zm-2.86-33.7a8.46,8.46,0,0,1-8.42-7.73l-.91-10.08a8.47,8.47,0,0,1,16.88-1.53l.9,10.13a8.47,8.47,0,0,1-7.69,9.18Zm-3.09-33.67a8.47,8.47,0,0,1-8.42-7.67l-1-10.07a8.47,8.47,0,1,1,16.86-1.66l1,10.12A8.47,8.47,0,0,1,2144,1751,7.5,7.5,0,0,1,2143.15,1751Zm-3.37-33.64a8.48,8.48,0,0,1-8.41-7.6c-.35-3.37-.71-6.73-1.07-10.06a8.47,8.47,0,1,1,16.85-1.81c.36,3.35.72,6.73,1.07,10.12a8.47,8.47,0,0,1-7.55,9.3A8.85,8.85,0,0,1,2139.78,1717.39Zm-3.66-33.62a8.47,8.47,0,0,1-8.41-7.51c-.39-3.37-.77-6.72-1.17-10a8.47,8.47,0,0,1,16.83-2q.6,5,1.17,10.12a8.47,8.47,0,0,1-7.46,9.37A7.82,7.82,0,0,1,2136.12,1683.77Zm-4-33.57a8.48,8.48,0,0,1-8.4-7.42c-.42-3.36-.85-6.71-1.27-10a8.47,8.47,0,1,1,16.8-2.17c.44,3.35.86,6.71,1.28,10.1a8.46,8.46,0,0,1-7.35,9.46A9.42,9.42,0,0,1,2132.11,1650.2Zm-4.4-33.52a8.49,8.49,0,0,1-8.39-7.32q-.69-5-1.39-10a8.47,8.47,0,0,1,16.78-2.38q.7,5,1.41,10.08a8.48,8.48,0,0,1-7.25,9.55A9.17,9.17,0,0,1,2127.71,1616.68Zm-4.83-33.46a8.48,8.48,0,0,1-8.37-7.21c-.5-3.35-1-6.68-1.53-10a8.47,8.47,0,0,1,16.74-2.61q.78,5,1.55,10.07a8.47,8.47,0,0,1-7.11,9.64A8,8,0,0,1,2122.88,1583.22Zm-5.32-33.39a8.47,8.47,0,0,1-8.35-7.07c-.56-3.34-1.12-6.66-1.7-10a8.47,8.47,0,0,1,16.7-2.9q.87,5,1.71,10a8.46,8.46,0,0,1-7,9.75A8.36,8.36,0,0,1,2117.56,1549.83Zm-5.89-33.28a8.48,8.48,0,0,1-8.32-6.92q-.93-5-1.88-9.92a8.47,8.47,0,1,1,16.64-3.2q1,5,1.9,10a8.47,8.47,0,0,1-6.78,9.88A8.32,8.32,0,0,1,2111.67,1516.55Zm-6.55-33.17a8.47,8.47,0,0,1-8.28-6.74q-1-5-2.09-9.87a8.47,8.47,0,1,1,16.56-3.57q1.07,5,2.12,10a8.48,8.48,0,0,1-6.56,10A8.74,8.74,0,0,1,2105.12,1483.38Zm-7.29-33a8.49,8.49,0,0,1-8.24-6.55q-1.15-4.93-2.33-9.79a8.47,8.47,0,1,1,16.46-4q1.2,4.93,2.37,9.94a8.47,8.47,0,0,1-6.32,10.18A8.64,8.64,0,0,1,2097.83,1450.38Zm-8.16-32.8a8.49,8.49,0,0,1-8.19-6.31q-1.29-4.89-2.62-9.71a8.47,8.47,0,0,1,16.34-4.49q1.35,4.89,2.66,9.87a8.47,8.47,0,0,1-6,10.36A8.56,8.56,0,0,1,2089.67,1417.58Zm-9.19-32.52a8.48,8.48,0,0,1-8.1-6q-1.47-4.86-3-9.61a8.47,8.47,0,1,1,16.16-5.07q1.53,4.83,3,9.77a8.49,8.49,0,0,1-5.66,10.57A8.72,8.72,0,0,1,2080.48,1385.06Zm-10.39-32.15a8.46,8.46,0,0,1-8-5.7q-1.66-4.77-3.35-9.45a8.47,8.47,0,1,1,15.94-5.76c1.15,3.18,2.29,6.41,3.42,9.66a8.48,8.48,0,0,1-8,11.25Zm-11.8-31.64a8.48,8.48,0,0,1-7.87-5.32q-1.87-4.68-3.8-9.24a8.47,8.47,0,0,1,15.61-6.59q2,4.7,3.91,9.51a8.46,8.46,0,0,1-4.7,11A8.34,8.34,0,0,1,2058.29,1321.27Zm-13.48-31a8.49,8.49,0,0,1-7.68-4.87q-2.13-4.55-4.33-9a8.47,8.47,0,1,1,15.17-7.54q2.28,4.57,4.5,9.28a8.48,8.48,0,0,1-7.66,12.09Zm-15.45-30A8.46,8.46,0,0,1,2022,1256q-2.46-4.37-5-8.6a8.48,8.48,0,0,1,14.58-8.65q2.61,4.4,5.16,9a8.47,8.47,0,0,1-7.38,12.62Zm-17.72-28.71a8.46,8.46,0,0,1-7-3.71q-2.81-4.12-5.67-8.1a8.47,8.47,0,0,1,13.74-9.92q3,4.17,6,8.5a8.47,8.47,0,0,1-7,13.23Zm-20.28-26.93a8.46,8.46,0,0,1-6.5-3q-3.18-3.81-6.44-7.45a8.47,8.47,0,1,1,12.63-11.29c2.3,2.56,4.56,5.19,6.8,7.86a8.47,8.47,0,0,1-6.49,13.92Zm-23-24.6a8.44,8.44,0,0,1-5.84-2.33c-2.38-2.26-4.8-4.48-7.24-6.63a8.48,8.48,0,0,1,11.23-12.7q3.88,3.43,7.69,7a8.47,8.47,0,0,1-5.84,14.61Zm-25.79-21.67a8.42,8.42,0,0,1-5-1.66q-4-2.91-8-5.67a8.48,8.48,0,0,1,9.56-14q4.31,2.94,8.51,6a8.47,8.47,0,0,1-5,15.28Zm-28.3-18.26a8.37,8.37,0,0,1-4.13-1.09q-4.26-2.38-8.63-4.62a8.47,8.47,0,0,1,7.73-15.08q4.65,2.37,9.19,4.92a8.48,8.48,0,0,1-4.16,15.87Zm-30.31-14.65a8.53,8.53,0,0,1-3.23-.64q-4.53-1.87-9.16-3.6a8.47,8.47,0,1,1,5.93-15.87q4.9,1.83,9.69,3.8a8.48,8.48,0,0,1-3.23,16.31Zm-31.82-11.13a8.15,8.15,0,0,1-2.37-.35c-3.15-.91-6.32-1.79-9.54-2.63a8.48,8.48,0,0,1,4.29-16.4q5,1.32,10,2.77a8.47,8.47,0,0,1-2.38,16.61Zm-32.77-7.95a9.18,9.18,0,0,1-1.64-.15c-3.22-.64-6.48-1.23-9.77-1.79a8.48,8.48,0,0,1,2.86-16.71q5.13.88,10.16,1.86a8.47,8.47,0,0,1-1.61,16.79ZM1786,1101.2a8.68,8.68,0,0,1-1-.06q-4.9-.59-9.9-1.08a8.47,8.47,0,1,1,1.65-16.86c3.45.34,6.86.71,10.25,1.11a8.47,8.47,0,0,1-1,16.89Z" transform="translate(-451.03 -455)"/><path class="cls-15" d="M2057.39,2597.55h0a8.47,8.47,0,0,1-8.42-8.52l0-5.21a8.47,8.47,0,0,1,8.47-8.44h0a8.46,8.46,0,0,1,8.44,8.5l0,5.25A8.46,8.46,0,0,1,2057.39,2597.55Zm.13-28.89h-.05a8.49,8.49,0,0,1-8.43-8.52l.05-10.07,8.47,0,8.47.1,0,10.08A8.48,8.48,0,0,1,2057.52,2568.66Zm.14-33.81h0a8.48,8.48,0,0,1-8.44-8.51l0-10.13a8.48,8.48,0,0,1,8.48-8.44h0a8.47,8.47,0,0,1,8.44,8.5l0,10.14A8.47,8.47,0,0,1,2057.66,2534.85Zm.12-33.8h0a8.48,8.48,0,0,1-8.44-8.5l0-10.14a8.48,8.48,0,0,1,8.47-8.45h0a8.48,8.48,0,0,1,8.45,8.5l0,10.14A8.47,8.47,0,0,1,2057.78,2501.05Zm.11-33.81h0a8.48,8.48,0,0,1-8.46-8.49l0-10.15a8.47,8.47,0,0,1,8.47-8.45h0a8.48,8.48,0,0,1,8.44,8.5l0,10.13A8.48,8.48,0,0,1,2057.89,2467.24Zm.09-33.81h0a8.47,8.47,0,0,1-8.45-8.49l0-10.13a8.47,8.47,0,0,1,8.47-8.46h0a8.47,8.47,0,0,1,8.45,8.49l0,10.14A8.47,8.47,0,0,1,2058,2433.43Zm.06-33.8h0a8.47,8.47,0,0,1-8.46-8.48V2381a8.47,8.47,0,0,1,8.47-8.47h0a8.47,8.47,0,0,1,8.46,8.48v10.14A8.47,8.47,0,0,1,2058,2399.63Zm0-33.81a8.47,8.47,0,0,1-8.47-8.47v-10.14a8.48,8.48,0,0,1,16.95,0v10.14A8.47,8.47,0,0,1,2058.07,2365.82Zm0-33.8a8.48,8.48,0,0,1-8.48-8.47v-10.14a8.49,8.49,0,0,1,8.47-8.49h0a8.48,8.48,0,0,1,8.47,8.47v10.15a8.48,8.48,0,0,1-8.46,8.48Zm-.06-33.82a8.47,8.47,0,0,1-8.47-8.46l0-10.14a8.47,8.47,0,0,1,8.45-8.49h0a8.46,8.46,0,0,1,8.47,8.44l0,10.16a8.47,8.47,0,0,1-8.45,8.49Zm-.11-33.82a8.48,8.48,0,0,1-8.48-8.44l0-10.14a8.48,8.48,0,0,1,8.43-8.52h0a8.49,8.49,0,0,1,8.48,8.43l0,10.16a8.48,8.48,0,0,1-8.44,8.51Zm-.17-33.83a8.47,8.47,0,0,1-8.47-8.42l-.06-10.14a8.46,8.46,0,0,1,8.41-8.53h.06a8.47,8.47,0,0,1,8.47,8.41l.06,10.16a8.47,8.47,0,0,1-8.42,8.52Zm-.23-33.82a8.47,8.47,0,0,1-8.47-8.41l-.09-10.14a8.47,8.47,0,0,1,8.4-8.54h.07a8.47,8.47,0,0,1,8.47,8.4l.09,10.15a8.48,8.48,0,0,1-8.41,8.54Zm-.32-33.82a8.47,8.47,0,0,1-8.47-8.38l-.11-10.14a8.46,8.46,0,0,1,8.37-8.57h.1a8.47,8.47,0,0,1,8.47,8.37l.12,10.16a8.49,8.49,0,0,1-8.38,8.56Zm-.4-33.82a8.48,8.48,0,0,1-8.47-8.36l-.14-10.15a8.48,8.48,0,0,1,17-.23l.14,10.15a8.48,8.48,0,0,1-8.36,8.59Zm-.49-33.82a8.47,8.47,0,0,1-8.47-8.33l-.17-10.14a8.47,8.47,0,0,1,8.32-8.62,8.55,8.55,0,0,1,8.62,8.32l.17,10.15a8.48,8.48,0,0,1-8.33,8.62Zm-.62-33.82a8.47,8.47,0,0,1-8.46-8.32L2047,2043a8.48,8.48,0,0,1,17-.35l.2,10.16a8.48,8.48,0,0,1-8.31,8.63Zm-.72-33.81a8.47,8.47,0,0,1-8.46-8.28l-.25-10.13a8.48,8.48,0,0,1,8.27-8.68h.21a8.48,8.48,0,0,1,8.47,8.26l.24,10.16a8.47,8.47,0,0,1-8.27,8.66Zm-.85-33.82a8.47,8.47,0,0,1-8.47-8.24l-.28-10.13a8.47,8.47,0,1,1,16.93-.48l.29,10.15a8.47,8.47,0,0,1-8.24,8.7Zm-1-33.8a8.48,8.48,0,0,1-8.46-8.2l-.33-10.13a8.47,8.47,0,1,1,16.93-.57l.34,10.15a8.48,8.48,0,0,1-8.2,8.74Zm-1.17-33.81a8.48,8.48,0,0,1-8.46-8.16l-.38-10.12a8.47,8.47,0,1,1,16.93-.66l.39,10.16a8.49,8.49,0,0,1-8.16,8.78Zm-1.35-33.79a8.48,8.48,0,0,1-8.46-8.11l-.44-10.12a8.47,8.47,0,1,1,16.93-.76l.44,10.15a8.47,8.47,0,0,1-8.1,8.83Zm-1.56-33.79a8.46,8.46,0,0,1-8.45-8.05l-.51-10.13a8.47,8.47,0,1,1,16.92-.86l.51,10.15a8.47,8.47,0,0,1-8,8.88Zm-1.77-33.78a8.47,8.47,0,0,1-8.46-8l-.58-10.1a8.47,8.47,0,0,1,16.92-1l.58,10.16a8.48,8.48,0,0,1-8,8.93Zm-2-33.76a8.47,8.47,0,0,1-8.45-7.93l-.66-10.1a8.47,8.47,0,1,1,16.91-1.13c.22,3.37.44,6.76.66,10.15a8.47,8.47,0,0,1-7.92,9A4.87,4.87,0,0,1,2045.2,1791.09Zm-2.31-33.74a8.49,8.49,0,0,1-8.45-7.87q-.36-5.06-.74-10.09a8.47,8.47,0,1,1,16.89-1.27q.39,5.06.76,10.14a8.48,8.48,0,0,1-7.84,9.06Zm-2.62-33.72a8.48,8.48,0,0,1-8.44-7.78q-.4-5.07-.84-10.08a8.47,8.47,0,1,1,16.88-1.45c.29,3.37.58,6.75.85,10.14a8.47,8.47,0,0,1-7.75,9.14Zm-3-33.69a8.49,8.49,0,0,1-8.43-7.69l-1-10.08a8.47,8.47,0,1,1,16.86-1.62l1,10.12a8.49,8.49,0,0,1-7.65,9.23C2037.84,1689.92,2037.57,1689.94,2037.31,1689.94Zm-3.35-33.66a8.47,8.47,0,0,1-8.41-7.59q-.54-5-1.08-10a8.47,8.47,0,1,1,16.84-1.85c.37,3.36.73,6.74,1.09,10.12a8.47,8.47,0,0,1-7.54,9.32C2034.56,1656.26,2034.26,1656.28,2034,1656.28Zm-3.78-33.61a8.47,8.47,0,0,1-8.4-7.47q-.6-5-1.22-10a8.47,8.47,0,0,1,16.82-2.08q.61,5,1.22,10.11a8.47,8.47,0,0,1-7.4,9.42A8.72,8.72,0,0,1,2030.18,1622.67Zm-4.26-33.55a8.47,8.47,0,0,1-8.39-7.35q-.67-5-1.38-10a8.47,8.47,0,0,1,16.78-2.36c.47,3.36.94,6.72,1.39,10.1a8.48,8.48,0,0,1-7.27,9.53A8.71,8.71,0,0,1,2025.92,1589.12Zm-4.82-33.48a8.46,8.46,0,0,1-8.37-7.18q-.76-5-1.56-10a8.47,8.47,0,0,1,16.74-2.65c.53,3.34,1,6.69,1.57,10.07a8.48,8.48,0,0,1-7.09,9.66A9.54,9.54,0,0,1,2021.1,1555.64Zm-5.45-33.38a8.46,8.46,0,0,1-8.33-7q-.87-5-1.76-9.94a8.47,8.47,0,0,1,16.68-3c.59,3.33,1.19,6.68,1.77,10a8.48,8.48,0,0,1-6.9,9.8A9,9,0,0,1,2015.65,1522.26Zm-6.16-33.25a8.48,8.48,0,0,1-8.3-6.83q-1-5-2-9.88a8.47,8.47,0,1,1,16.6-3.41q1,5,2,10a8.48,8.48,0,0,1-6.68,9.95A8.39,8.39,0,0,1,2009.49,1489Zm-7-33.09a8.49,8.49,0,0,1-8.26-6.61q-1.11-4.95-2.25-9.82a8.47,8.47,0,1,1,16.5-3.86q1.15,4.93,2.29,10a8.48,8.48,0,0,1-6.41,10.12A8.58,8.58,0,0,1,2002.52,1455.92Zm-7.91-32.87a8.46,8.46,0,0,1-8.19-6.37c-.85-3.26-1.7-6.51-2.56-9.72a8.47,8.47,0,1,1,16.36-4.4q1.32,4.9,2.6,9.9a8.47,8.47,0,0,1-6.09,10.32A8.62,8.62,0,0,1,1994.61,1423.05Zm-9-32.6a8.46,8.46,0,0,1-8.12-6.07q-1.44-4.85-2.91-9.61a8.47,8.47,0,1,1,16.19-5q1.5,4.86,3,9.8a8.47,8.47,0,0,1-5.72,10.53A8.37,8.37,0,0,1,1985.62,1390.45Zm-10.26-32.21a8.46,8.46,0,0,1-8-5.73q-1.63-4.79-3.32-9.46a8.47,8.47,0,1,1,16-5.72q1.73,4.8,3.4,9.69a8.48,8.48,0,0,1-5.27,10.76A8.58,8.58,0,0,1,1975.36,1358.24Zm-11.73-31.7a8.47,8.47,0,0,1-7.87-5.32q-1.87-4.7-3.8-9.26a8.48,8.48,0,1,1,15.63-6.56q2,4.69,3.9,9.51a8.48,8.48,0,0,1-7.86,11.63Zm-13.46-31a8.46,8.46,0,0,1-7.67-4.86q-2.14-4.54-4.35-9a8.47,8.47,0,1,1,15.18-7.54q2.28,4.57,4.49,9.29a8.47,8.47,0,0,1-7.65,12.08Zm-15.49-30a8.47,8.47,0,0,1-7.39-4.31q-2.44-4.37-5-8.59a8.47,8.47,0,1,1,14.55-8.68q2.63,4.39,5.19,9a8.48,8.48,0,0,1-7.38,12.63Zm-17.8-28.69a8.46,8.46,0,0,1-7-3.69q-2.82-4.11-5.7-8.07a8.47,8.47,0,0,1,13.69-10q3,4.17,6,8.49a8.48,8.48,0,0,1-7,13.26ZM1896.43,1210a8.46,8.46,0,0,1-6.46-3q-3.21-3.78-6.5-7.39a8.47,8.47,0,1,1,12.52-11.42q3.49,3.84,6.9,7.84a8.48,8.48,0,0,1-6.46,14Zm-23.34-24.37a8.49,8.49,0,0,1-5.75-2.24q-3.6-3.34-7.31-6.5a8.47,8.47,0,0,1,11-12.9q4,3.38,7.83,7a8.47,8.47,0,0,1-5.75,14.69Zm-26.25-21.13A8.44,8.44,0,0,1,1842,1163q-4-2.81-8.12-5.41a8.47,8.47,0,0,1,9.08-14.31c2.94,1.87,5.88,3.83,8.74,5.82a8.47,8.47,0,0,1-4.86,15.42Zm-28.89-17.2a8.44,8.44,0,0,1-3.79-.9q-4.35-2.18-8.82-4.18a8.47,8.47,0,0,1,6.92-15.47c3.16,1.42,6.35,2.93,9.48,4.5a8.47,8.47,0,0,1-3.79,16Zm-31.12-12.88a8.63,8.63,0,0,1-2.68-.43q-4.62-1.54-9.34-2.9a8.47,8.47,0,1,1,4.69-16.28q5.05,1.45,10,3.1a8.47,8.47,0,0,1-2.67,16.51Z" transform="translate(-451.03 -455)"/><rect class="cls-16" x="1116.23" y="2045.59" width="980.27" height="120.03" rx="7.68"/><path class="cls-17" d="M1223.9,946.28s-9.88,257.5-189.74,339.52l79.87,55.83s162-182.5,137.5-346.33Z" transform="translate(-451.03 -455)"/><path class="cls-18" d="M1449.16,736.33h237.7a8.18,8.18,0,0,1,8.18,8.18V764a0,0,0,0,1,0,0H1441a0,0,0,0,1,0,0V744.51A8.18,8.18,0,0,1,1449.16,736.33Z" transform="translate(914.79 -1431.26) rotate(57.75)"/><polygon class="cls-19" points="1050.99 522.71 1297.86 623.14 1288.38 655.16 864.15 685.4 1050.99 522.71"/><path class="cls-20" d="M1149.74,775.66c-.22-.36-.44-.73-.65-1.1l-30.23-54c-18.55-33.16-4.23-76.6,31.92-96.83l106-59.33c36.16-20.22,80.67-9.69,99.22,23.47l30.23,54a23.86,23.86,0,0,1-41.64,23.3l-30.23-54c-5.6-10-21.31-12.37-34.28-5.12l-106.05,59.33c-13,7.26-19.19,21.86-13.58,31.9l30.23,54a23.86,23.86,0,0,1-41,24.4Z" transform="translate(-451.03 -455)"/><path class="cls-21" d="M1648,889.48l-168.3-266.77a34.74,34.74,0,0,0-46.23-11.86L1147.17,769.54c-.58.32-1.14.65-1.7,1l-37.36,23.57A34.75,34.75,0,0,0,1097.27,842l188.12,298.18a34.74,34.74,0,0,0,47.92,10.85l37.36-23.57c.56-.35,1.1-.72,1.64-1.1l266.51-190.09A34.75,34.75,0,0,0,1648,889.48Z" transform="translate(-451.03 -455)"/><path class="cls-22" d="M1804,1174.53l15.4-150.37a4.37,4.37,0,0,0-3.9-4.79l-9.76-1a4.38,4.38,0,0,0-2.69.61l-59.5,56.47-4.3,35.42,47.68,65.43a4.35,4.35,0,0,0,2.52,1.13l9.76,1A4.36,4.36,0,0,0,1804,1174.53Z" transform="translate(-451.03 -455)"/><path class="cls-23" d="M1215.62,968.46a5.08,5.08,0,0,1-4.3-2.36l-76.57-121.38a27.27,27.27,0,0,1,9.82-38.38l204.6-113.67a5.07,5.07,0,1,1,4.93,8.87L1149.5,815.2a17.14,17.14,0,0,0-6.17,24.11l76.57,121.37a5.07,5.07,0,0,1-4.28,7.78Z" transform="translate(-451.03 -455)"/><path class="cls-24" d="M1100,1821.14s-105.14,229.14-160.3,324c0,0-11,59.72,0,78.5l9.34,4.15-43.58-1.3s-3.87-80.33-.85-84.81,9.07-4.2,9.07-4.2,18.69-148,72.8-179.62l52.44-180.62Z" transform="translate(-451.03 -455)"/><path class="cls-25" d="M967.67,2239.09c.06,1-34,.57-52.55.23A14.71,14.71,0,0,1,901,2227.71l-14-73.47a13.21,13.21,0,0,1,10-15.35l7.8-1.79s11.14,15.28,7.63,29.66-6.62,51.64,2.24,56,34.34,5.1,34.34,5.1S967.08,2229.63,967.67,2239.09Z" transform="translate(-451.03 -455)"/><path class="cls-26" d="M992.43,1935.69l57-315.56,105.18,65.74S1083.87,1883.57,1045,1962s-92,166.55-92,166.55-17.54,4.38-39.45-21.92C913.54,2106.61,926.69,1988.28,992.43,1935.69Z" transform="translate(-451.03 -455)"/><path class="cls-27" d="M1199.67,2240.42a3.85,3.85,0,0,1-2,7.19c-31-.31-100.43-1.29-106.6-3.85-8-3.32,2.9-31.94,14.34-41.63l63.17,20.61Z" transform="translate(-451.03 -455)"/><path class="cls-28" d="M1219.27,1806.52s-67.94,328.68-87.16,392.79l45.47,28.53s-22.79-3.87-39.68-5.1-32.44-20.61-32.44-20.61l5.45-8.69s17-326.89,12.89-364Z" transform="translate(-451.03 -455)"/><path class="cls-29" d="M1247.05,1285.41c-26,7.23-114.26,30.44-169.34,29.49l33.82,190.83-2.69,31.13,110.25-.5s31-72.08,55.53-108c7.07-10.38,1.81-22.76-2.2-34.66l5.51-3.67a15,15,0,0,0,5.94-17.14L1257,1290.72A8.21,8.21,0,0,0,1247.05,1285.41Z" transform="translate(-451.03 -455)"/><path class="cls-30" d="M1227.93,1520.07l-1.64,14.21a19.36,19.36,0,0,0,1,8.61c5.23,14.81,21.79,70.48,10.61,156.13,0,0-63.9,24.66-131.15,5.8a78.55,78.55,0,0,1-56.51-86.61,140.44,140.44,0,0,1,5.44-23.25c8.81-28.23,36.24-47.77,47.89-55a12,12,0,0,0,5.61-9.63l.65-14.07S1198.78,1532.34,1227.93,1520.07Z" transform="translate(-451.03 -455)"/><path class="cls-31" d="M1184.77,1300.8c.38-.52-23-70.67-23-70.67l-33.53,3-13.09,79.59S1167.67,1323.36,1184.77,1300.8Z" transform="translate(-451.03 -455)"/><path class="cls-32" d="M1136.25,1119.5c2.23,1.39,71.64,30.07,56.73,102.13a13.53,13.53,0,0,1-7.7,9.64c-10.18,4.54-32.11,12.32-58.33,9.65-36.36-3.69-60.19-67.14-59.17-85.6S1114.09,1105.7,1136.25,1119.5Z" transform="translate(-451.03 -455)"/><path class="cls-33" d="M1252.76,1325.38a14.7,14.7,0,0,1,13.1-20c25.58-1.18,70.05-9.25,107.69-46.89,24.42-24.42,30.88-113.24,30.88-113.24s5.15-41.18,15.45-41.18,0,25.73,0,25.73,25.73,15.45,51.47-5.14-5.15,30.88-30.88,41.17c0,0,9.89,202.8-159.42,206a14.81,14.81,0,0,1-14.07-9.46Z" transform="translate(-451.03 -455)"/><path class="cls-34" d="M1159.8,1265a94.84,94.84,0,0,0-8-38.13c-5.76-13.16-4.58-28.53,4.64-39.55,15.07-18,20.54-40.91,12.23-60.94-13-31.27-54.57-43.72-92.91-27.81-27.19,11.28-45.4,33.78-49.08,57.06a52.42,52.42,0,0,1-20.05,33.54,95.47,95.47,0,0,0-32.93,46.51c-4.07,12.63-12.26,23.5-23.79,30.08a145.31,145.31,0,0,0-60.87,67.2c-33,73.8.34,160.43,74.38,193.5s160.78,0,193.74-73.75a145.79,145.79,0,0,0-2.07-123.48c-4.58-9.42-5.53-20.26-1.74-30A94.5,94.5,0,0,0,1159.8,1265Z" transform="translate(-451.03 -455)"/><path class="cls-35" d="M1102,2176.74c-6-1.71,21.91-442.66,21.91-442.66l-17.53-43.83,131.48,8.77s-52.59,398.83-83.27,482.1C1154.59,2181.12,1132.68,2185.5,1102,2176.74Z" transform="translate(-451.03 -455)"/><path class="cls-36" d="M1219.27,1292.72l-24.2,5.78s16.5,163.85-27.33,225.21l26.3,4.38S1240.12,1434.27,1219.27,1292.72Z" transform="translate(-451.03 -455)"/><path class="cls-2" d="M2421.85,3237.45s-235.72-36.23-247.25-189c-9.27-122.8,61.92,13.3,157.06,105.78,7.46,7.25,18.67-3.35,11.84-11.21-67.14-77.17-161.65-200.18-132.37-251.76,44.21-77.87,44.31-30.77,102.8,78.59s97,112.39,68.43,34.68S2248,2843,2264.09,2796.55s71.78-102.84,93-131.16,154.32,82.23,142.5,143.72-73.26,145.7-58.83,199.86,55-41.18,72.77-95.18,37.72-83.93,67.67-19.34-21.19,143-70.6,184.6-65.66,82-39.81,63.6,100.68-81.71,112.67-116.62S2654.29,3144.81,2421.85,3237.45Z" transform="translate(-451.03 -455)"/><path class="cls-37" d="M2413.25,3227.5a2.1,2.1,0,0,1-.86-2c24.51-181.09-29.76-421.73-30.31-424.14a2.1,2.1,0,0,1,4.1-.94c.56,2.42,55,243.79,30.39,425.64a2.12,2.12,0,0,1-2.37,1.81A2.05,2.05,0,0,1,2413.25,3227.5Z" transform="translate(-451.03 -455)"/><path class="cls-23" d="M2428.34,3236.29s-172.63-168.17-92.42-300.63c64.46-106.45,43.13,47.29,67.1,179.2,1.88,10.35,17.33,8.21,16.32-2.26-9.93-102.89-15.46-259.55,38.9-284.79,82.07-38.1,54.51.7,38.43,125s13.85,149.41,35.92,68.69-15.73-211.71,24.79-240.47,119.4-42.46,153.5-53.28,78.67,158.22,32.86,201.86S2598,3006.45,2578,3059.46s69.41-1.59,115.73-35.57,80.3-46.9,67,23.82-101.39,105.21-166.43,110.39-102.17,28.94-70.08,29,130.78-8.12,161.13-29.79S2673.91,3296.53,2428.34,3236.29Z" transform="translate(-451.03 -455)"/><path class="cls-37" d="M2427.11,3223.06a2.12,2.12,0,0,1,.46-2.15c126.46-134.56,223.07-364.36,224-366.67a2.13,2.13,0,0,1,3.93,1.64c-1,2.31-97.87,232.81-224.86,367.95a2.14,2.14,0,0,1-3,.09A2.11,2.11,0,0,1,2427.11,3223.06Z" transform="translate(-451.03 -455)"/></svg>